<?xml version="1.0" encoding="utf-8"?>
<!-- Generator: Adobe Illustrator 16.0.0, SVG Export Plug-In . SVG Version: 6.00 Build 0)  -->
<!DOCTYPE svg PUBLIC "-//W3C//DTD SVG 1.1//EN" "http://www.w3.org/Graphics/SVG/1.1/DTD/svg11.dtd">
<svg version="1.1" id="Layer_1" xmlns="http://www.w3.org/2000/svg" xmlns:xlink="http://www.w3.org/1999/xlink" x="0px" y="0px"
	 width="330px" height="120px" viewBox="0 0 330 120" enable-background="new 0 0 330 120" xml:space="preserve">
<g>
	<path fill="#FFFFFF" d="M149.771,81.477c0,1.1,0.695,1.429,1.544,0.729l24.86-20.447c0.85-0.699,1.545-1.271,1.545-1.271
		c0-0.001-0.695-0.572-1.545-1.271l-24.86-20.446c-0.849-0.699-1.544-0.371-1.544,0.729V81.477z"/>
</g>
<path fill="#FFFFFF" d="M175.605,81.488c0,0.553,0.447,1,1,1h4.666c0.553,0,1-0.447,1-1v-42c0-0.553-0.447-1-1-1h-4.666
	c-0.553,0-1,0.447-1,1V81.488z"/>
</svg>
