<?xml version="1.0" encoding="utf-8"?>
<!-- Generator: Adobe Illustrator 16.0.0, SVG Export Plug-In . SVG Version: 6.00 Build 0)  -->
<!DOCTYPE svg PUBLIC "-//W3C//DTD SVG 1.1//EN" "http://www.w3.org/Graphics/SVG/1.1/DTD/svg11.dtd">
<svg version="1.1" id="Layer_1" xmlns="http://www.w3.org/2000/svg" xmlns:xlink="http://www.w3.org/1999/xlink" x="0px" y="0px"
	 width="372.118px" height="222px" viewBox="6.941 0 372.118 222" enable-background="new 6.941 0 372.118 222"
	 xml:space="preserve">
<g>
	<path fill="#D8C541" d="M141.186,118.186c6.305-5.365,6.086-13.729,6.086-13.729v-3.983h-25.238l-0.019,22.689
		C122.015,123.162,134.801,123.624,141.186,118.186"/>
	<path fill="#D8C541" d="M148.617,96.314c-9.788,0-25.792-6.573-25.792-34.304l0.036-49.795c0,0,13.001-0.502,19.483,5.462
		c6.398,5.891,6.318,15.083,6.318,15.083l-0.009,27.778c0,6.061,2.779,10.817,9.42,10.817l30.952,0.103
		c8.293,0,11.017-3.955,11.032-10.603l0.021-40.226c0,0-0.209-9.183,6.179-15.08c6.481-5.965,19.493-5.458,19.493-5.458
		l0.092,62.003c-0.092,23.967-13.869,34.025-26.005,34.218C199.629,96.322,148.617,96.314,148.617,96.314"/>
	<path fill="#40AABC" d="M244.824,118.413c-6.301-5.365-6.1-13.731-6.1-13.731l-0.006-3.986h25.247l0.021,22.701
		C263.986,123.396,251.189,123.861,244.824,118.413"/>
	<path fill="#40AABC" d="M238.087,96.23c9.793,0,25.796-6.569,25.796-34.303l-0.056-49.791c0,0-13-0.514-19.481,5.46
		c-6.375,5.884-6.297,15.075-6.297,15.075v27.773c0,6.074-3.138,10.958-9.787,10.958l-30.589-0.033
		c-8.289,0-11.012-3.953-11.031-10.598l-0.018-40.228c0,0,0.204-9.182-6.184-15.07c-6.479-5.975-19.484-5.462-19.484-5.462
		l-0.089,61.999c0.089,23.963,13.854,34.019,26.002,34.22H238.087"/>
	<path fill="#D8C541" d="M199.88,32.612v27.786c0,4.746-1.923,8.758-5.942,10.288c-0.084,0.034-0.768,0.242-0.859,0.274
		l0.028,25.271c3.804,0,6.816-0.05,6.816-0.05c9.788,0,25.797-6.573,25.797-34.303l-0.046-47.082c0,0-13.005-0.51-19.483,5.46
		C199.797,26.151,199.88,32.612,199.88,32.612"/>
	<path fill="#787878" d="M170.032,176.85c-0.005,0.104-42.164,44.287-42.164,44.287s-7.635-6.125-4.938-14.967
		c0.597-1.949,15.49-17.025,27.042-28.52l-19.999,0.006c0,0-4.767,0.115-7.812-3.473c-3.108-3.633-2.834-10.926-2.834-10.926h39.858
		c0,0,2.854-0.074,5.562,1.564C166.716,165.777,170.189,168.625,170.032,176.85 M314.164,209.697V163.1
		c0,0-7.564-0.273-11.338,2.885c-3.727,3.097-3.586,7.943-3.586,7.943v46.59c0,0,7.561,0.271,11.34-2.877
		C314.293,214.534,314.164,209.697,314.164,209.697 M53.91,173.104c-0.45-4.895-5.981-10.062-5.981-10.062l-26.063,26.104v-14.959
		c0,0,0.118-4.826-3.598-7.938c-3.771-3.144-11.326-2.882-11.326-2.882v46.599c0,0-0.117,4.835,3.597,7.931
		c3.756,3.16,11.327,2.883,11.327,2.883l0.014-10.487l28.98-29.024C50.859,181.264,54.341,177.93,53.91,173.104 M37.7,220.684
		l12.908,0.01c0,0,0.261-7.285-2.837-10.922c-3.049-3.59-7.814-3.473-7.814-3.473H37.7V220.684z M216.246,218.557
		c3.718-3.099,3.59-7.934,3.59-7.934l0.012-31.752l18.979,0.004l-0.019,32.298c0,0-0.113,4.851,3.599,7.945
		c3.782,3.149,11.332,2.875,11.332,2.875V178.91l18.653-0.016l-0.021,31.67c0,0-0.122,4.84,3.592,7.932
		c3.78,3.146,11.346,2.888,11.346,2.888v-46.599c0,0,0.118-4.838-3.602-7.919c-2.825-2.382-7.812-2.813-10.104-2.882
		c-0.543-0.049-55.059-0.049-56.386-0.049c-2.966,0-5.819,0.621-8.719,2.975c-3.763,3.051-3.603,7.947-3.603,7.947v46.586
		C204.896,221.443,212.467,221.706,216.246,218.557 M368.331,206.73h-2.257v14.375h12.914c0,0,0.259-7.283-2.838-10.924
		C373.094,206.611,368.331,206.73,368.331,206.73 M326.326,188.828l0.004,21.132c0,0-0.119,4.835,3.607,7.944
		c3.771,3.133,11.338,2.857,11.338,2.857l-0.031-17.182l27.961-0.014c0,0,4.357,0.119,7.463-3.611
		c2.252-2.693,2.45-7.118,2.38-9.422V174.18c0,0,0.296-3.519-2.559-7c-3.071-3.73-7.929-3.595-7.929-3.595h-42.021
		c0,0-0.85,7.577,2.292,11.345c3.103,3.736,7.952,3.6,7.952,3.6h27.339l0.003,10.418L326.326,188.828z M157.687,206.777h-2.252
		v14.387l12.91,0.01c0,0,0.256-7.301-2.835-10.938C162.47,206.646,157.687,206.777,157.687,206.777 M89.875,193.656
		c3.119,3.646,2.857,10.957,2.857,10.957H79.759V190.18h2.265C82.023,190.18,86.822,190.055,89.875,193.656z M112.389,221.354
		c0,0-7.608,0.272-11.383-2.867c-3.734-3.133-3.617-7.98-3.617-7.98l-0.013-31.878H74.771l-0.014,31.78c0,0,0.119,4.851-3.608,7.955
		c-3.787,3.162-11.373,2.896-11.373,2.896v-46.721c0,0-0.125-4.846,3.595-7.967c3.79-3.145,11.387-2.885,11.387-2.885v0.014h24.927
		l0.106,0.001c2.547,0.172,6.522,0.915,8.984,2.961c3.736,3.123,3.613,7.974,3.613,7.974L112.389,221.354L112.389,221.354z
		 M188.715,218.857c-3.796,3.158-11.39,2.883-11.39,2.883v-46.723c0,0-0.14-4.855,3.598-7.965
		c3.794-3.166,11.395-2.892,11.395-2.892v46.731C192.317,210.895,192.441,215.743,188.715,218.857z"/>
</g>
</svg>
