<?xml version="1.0" encoding="utf-8"?>
<!-- Generator: Adobe Illustrator 16.0.0, SVG Export Plug-In . SVG Version: 6.00 Build 0)  -->
<!DOCTYPE svg PUBLIC "-//W3C//DTD SVG 1.1//EN" "http://www.w3.org/Graphics/SVG/1.1/DTD/svg11.dtd">
<svg version="1.1" id="Layer_1" xmlns="http://www.w3.org/2000/svg" xmlns:xlink="http://www.w3.org/1999/xlink" x="0px" y="0px"
	 width="67px" height="67px" viewBox="159.5 351.36 67 67" enable-background="new 159.5 351.36 67 67" xml:space="preserve">
<path fill-rule="evenodd" clip-rule="evenodd" fill="#40AABC" d="M193,351.36c18.501,0,33.5,14.998,33.5,33.5
	s-14.999,33.5-33.5,33.5s-33.5-14.998-33.5-33.5S174.499,351.36,193,351.36z"/>
<path fill-rule="evenodd" clip-rule="evenodd" fill="#FFFFFF" d="M208.999,379.048c0,0,0,2.814,0,3.875c0,1.288-0.3,2.108-1,2.906
	v10.658c0,2.141-1.911,3.875-4.189,3.875h-21.654c-2.277,0-4.124-1.734-4.124-3.875l-0.03-10.658
	c-0.619-0.746-1.001-1.874-1.001-2.906c0-0.553,0-3.875,0-3.875l5.812-9.689h20.342L208.999,379.048 M180.003,396.487
	c0,1.07,1.014,1.938,2.152,1.938h21.654c1.139,0,2.189-0.867,2.189-1.938v-1.938h-25.996V396.487z M180.003,392.612h25.996v-5.814
	c-0.256,0.047-1.707,0-2,0c-1.894,0-2.626-1.04-3.533-2.494c-0.775,1.441-2.309,2.494-3.788,2.494c-1.493,0-3.135-0.908-3.694-2.146
	c-0.561,1.269-2.238,2.146-3.762,2.146c-1.441,0-2.951-0.967-3.76-2.348c-0.721,1.42-2.424,2.348-3.498,2.348
	c-0.525,0-1.386,0-1.964,0L180.003,392.612z M206.999,382.923c-0.014,1.338-1.607,1.938-3,1.938c-1.607,0-3.055-0.943-3.055-1.938
	h-0.945c0,0.978-1.791,1.938-3.332,1.938c-1.479,0-3.199-0.99-3.199-1.938h-0.969c0,0.978-1.75,1.938-3.229,1.938
	c-1.542,0-3.303-0.688-3.303-1.938h-0.946c0,0.975-1.544,1.969-3.026,1.969c-1.504,0-2.995-0.631-2.995-1.969v-1.938h27.999V382.923
	z M207.062,379.048h-0.033l-4.758-7.752h-18.572l-4.658,7.752H207.062"/>
</svg>
